<svg width="46" height="20" viewBox="0 0 46 20" fill="none" xmlns="http://www.w3.org/2000/svg">
<path d="M10 10V14.5C10 15.3284 10.6716 16 11.5 16V16C12.3284 16 13 15.3284 13 14.5V10M16 6V10M18 16H17.9C16.8507 16 16 15.1493 16 14.1V10M16 10H18M21 4V16M24 6V7M24 10V16M27 16V10.25C27 10.1119 27.1119 10 27.25 10H28C29.1046 10 30 10.8954 30 12V16M33 13H35.75C35.8881 13 36 12.8881 36 12.75V11.5C36 10.6716 35.3284 10 34.5 10V10C33.6716 10 33 10.6716 33 11.5V14C33 15.1046 33.8954 16 35 16H36M39 16V10.25C39 10.1119 39.1119 10 39.25 10H40.1C41.1493 10 42 10.8507 42 11.9V12M5.5 16V16C4.67157 16 4 15.3284 4 14.5V11.5C4 10.6716 4.67157 10 5.5 10V10C6.32843 10 7 10.6716 7 11.5V14.5C7 15.3284 6.32843 16 5.5 16Z" stroke="#B8C2CC" stroke-width="2" stroke-linecap="round"/>
</svg>
