<svg width="46" height="20" viewBox="0 0 46 20" fill="none" xmlns="http://www.w3.org/2000/svg">
<path d="M11 10C11 9.44772 10.5523 9 10 9C9.44772 9 9 9.44772 9 10H11ZM14 10C14 9.44772 13.5523 9 13 9C12.4477 9 12 9.44772 12 10H14ZM17 6C17 5.44772 16.5523 5 16 5C15.4477 5 15 5.44772 15 6H17ZM22 4C22 3.44772 21.5523 3 21 3C20.4477 3 20 3.44772 20 4H22ZM20 16C20 16.5523 20.4477 17 21 17C21.5523 17 22 16.5523 22 16H20ZM23 16C23 16.5523 23.4477 17 24 17C24.5523 17 25 16.5523 25 16H23ZM25 10C25 9.44772 24.5523 9 24 9C23.4477 9 23 9.44772 23 10H25ZM18 17C18.5523 17 19 16.5523 19 16C19 15.4477 18.5523 15 18 15V17ZM26 16C26 16.5523 26.4477 17 27 17C27.5523 17 28 16.5523 28 16H26ZM29 16C29 16.5523 29.4477 17 30 17C30.5523 17 31 16.5523 31 16H29ZM36 17C36.5523 17 37 16.5523 37 16C37 15.4477 36.5523 15 36 15V17ZM38 16C38 16.5523 38.4477 17 39 17C39.5523 17 40 16.5523 40 16H38ZM41 12.1C41 12.6523 41.4477 13.1 42 13.1C42.5523 13.1 43 12.6523 43 12.1H41ZM16 9C15.4477 9 15 9.44772 15 10C15 10.5523 15.4477 11 16 11V9ZM18 11C18.5523 11 19 10.5523 19 10C19 9.44772 18.5523 9 18 9V11ZM23 7C23 7.55228 23.4477 8 24 8C24.5523 8 25 7.55228 25 7H23ZM25 6C25 5.44772 24.5523 5 24 5C23.4477 5 23 5.44772 23 6H25ZM9 10V14.5H11V10H9ZM14 14.5V10H12V14.5H14ZM15 6V14H17V6H15ZM20 4V16H22V4H20ZM25 16V10H23V16H25ZM15 14C15 15.6569 16.3431 17 18 17V15C17.4477 15 17 14.5523 17 14H15ZM11.5 17C12.8807 17 14 15.8807 14 14.5H12C12 14.7761 11.7761 15 11.5 15V17ZM9 14.5C9 15.8807 10.1193 17 11.5 17V15C11.2239 15 11 14.7761 11 14.5H9ZM28 16V10.25H26V16H28ZM27.25 11H28V9H27.25V11ZM29 12V16H31V12H29ZM35 11.5V12.75H37V11.5H35ZM34 13V11.5H32V13H34ZM35.75 12H33V14H35.75V12ZM36 15H35V17H36V15ZM34 14V13H32V14H34ZM40 16V10.25H38V16H40ZM39.25 11H40V9H39.25V11ZM41 12V12.1H43V12H41ZM35 15C34.4477 15 34 14.5523 34 14H32C32 15.6569 33.3431 17 35 17V15ZM34.5 11C34.7761 11 35 11.2239 35 11.5H37C37 10.1193 35.8807 9 34.5 9V11ZM34.5 9C33.1193 9 32 10.1193 32 11.5H34C34 11.2239 34.2239 11 34.5 11V9ZM40 11C40.5523 11 41 11.4477 41 12H43C43 10.3431 41.6569 9 40 9V11ZM28 11C28.5523 11 29 11.4477 29 12H31C31 10.3431 29.6569 9 28 9V11ZM6 11.5V14.5H8V11.5H6ZM5 14.5V11.5H3V14.5H5ZM5.5 15C5.22386 15 5 14.7761 5 14.5H3C3 15.8807 4.11929 17 5.5 17V15ZM6 14.5C6 14.7761 5.77614 15 5.5 15V17C6.88071 17 8 15.8807 8 14.5H6ZM5.5 11C5.77614 11 6 11.2239 6 11.5H8C8 10.1193 6.88071 9 5.5 9V11ZM5.5 9C4.11929 9 3 10.1193 3 11.5H5C5 11.2239 5.22386 11 5.5 11V9ZM16 11H18V9H16V11ZM25 7V6H23V7H25ZM40 10.25C40 10.6642 39.6642 11 39.25 11V9C38.5596 9 38 9.55964 38 10.25H40ZM35 12.75C35 12.3358 35.3358 12 35.75 12V14C36.4404 14 37 13.4404 37 12.75H35ZM28 10.25C28 10.6642 27.6642 11 27.25 11V9C26.5596 9 26 9.55964 26 10.25H28Z" fill="#B8C2CC"/>
</svg>
