<svg width="24" height="24" viewBox="0 0 24 24" fill="none" xmlns="http://www.w3.org/2000/svg">
<path d="M21 11V9C21 7.89543 20.1046 7 19 7H12.3604C12.1452 7 11.9541 6.86228 11.886 6.65811L11.4558 5.36754C11.1836 4.55086 10.4193 4 9.55848 4H5C3.89543 4 3 4.89543 3 6V18C3 19.1046 3.89543 20 5 20H11" stroke="#B8C2CC" stroke-width="2" stroke-linecap="round"/>
<path d="M20 15H16C15.7239 15 15.5 15.2239 15.5 15.5V21.8204C15.5 21.8988 15.586 21.9467 15.6527 21.9055L17.9473 20.4842C17.9796 20.4642 18.0204 20.4642 18.0527 20.4842L20.3473 21.9055C20.414 21.9467 20.5 21.8988 20.5 21.8204V15.5C20.5 15.2239 20.2761 15 20 15Z" stroke="#249EED" stroke-width="2" stroke-linejoin="round"/>
</svg>
