<svg width="24" height="24" viewBox="0 0 24 24" fill="none" xmlns="http://www.w3.org/2000/svg">
<path fill-rule="evenodd" clip-rule="evenodd" d="M15.1716 15.1716C15.5621 14.781 16.1953 14.781 16.5858 15.1716L18 16.5858L19.4142 15.1716C19.8047 14.781 20.4379 14.781 20.8284 15.1716C21.2189 15.5621 21.2189 16.1953 20.8284 16.5858L19.4142 18L20.8284 19.4142C21.2189 19.8047 21.2189 20.4379 20.8284 20.8284C20.4379 21.219 19.8047 21.219 19.4142 20.8284L18 19.4142L16.5858 20.8284C16.1953 21.219 15.5621 21.219 15.1716 20.8284C14.781 20.4379 14.781 19.8047 15.1716 19.4142L16.5858 18L15.1716 16.5858C14.781 16.1953 14.781 15.5621 15.1716 15.1716Z" fill="#CC1F1A"/>
<path d="M12 20H5C3.89543 20 3 19.1046 3 18V6C3 4.89543 3.89543 4 5 4H19C20.1046 4 21 4.89543 21 6V12" stroke="#B8C2CC" stroke-width="2" stroke-linecap="round"/>
<path d="M3 10H21" stroke="#B8C2CC" stroke-width="2" stroke-linecap="square" stroke-linejoin="round"/>
<path d="M11 6C10.4477 6 10 6.44772 10 7C10 7.55228 10.4477 8 11 8C11.5523 8 12 7.55228 12 7C12 6.44772 11.5523 6 11 6Z" fill="#B8C2CC"/>
<path d="M7 6C6.44772 6 6 6.44772 6 7C6 7.55228 6.44772 8 7 8C7.55228 8 8 7.55228 8 7C8 6.44772 7.55228 6 7 6Z" fill="#B8C2CC"/>
<path d="M15 6C14.4477 6 14 6.44772 14 7C14 7.55228 14.4477 8 15 8C15.5523 8 16 7.55228 16 7C16 6.44772 15.5523 6 15 6Z" fill="#B8C2CC"/>
</svg>
